<svg width="91" height="50" viewBox="0 0 91 50" fill="none" xmlns="http://www.w3.org/2000/svg">
<path d="M4.75071 42V7.09091H16.5462C19.2848 7.09091 21.5234 7.58523 23.2621 8.57386C25.0121 9.55114 26.3075 10.875 27.1484 12.5455C27.9893 14.2159 28.4098 16.0795 28.4098 18.1364C28.4098 20.1932 27.9893 22.0625 27.1484 23.7443C26.3189 25.4261 25.0348 26.767 23.2962 27.767C21.5575 28.7557 19.3303 29.25 16.6143 29.25H8.1598V25.5H16.478C18.353 25.5 19.8587 25.1761 20.995 24.5284C22.1314 23.8807 22.9553 23.0057 23.4666 21.9034C23.9893 20.7898 24.2507 19.5341 24.2507 18.1364C24.2507 16.7386 23.9893 15.4886 23.4666 14.3864C22.9553 13.2841 22.1257 12.4205 20.978 11.7955C19.8303 11.1591 18.3075 10.8409 16.4098 10.8409H8.97798V42H4.75071ZM35.2195 42V7.09091H56.2876V10.8409H39.4467V22.6364H55.1967V26.3864H39.4467V38.25H56.5604V42H35.2195ZM61.9979 10.8409V7.09091H88.1797V10.8409H77.2024V42H72.9751V10.8409H61.9979Z" fill="#FBECA2"/>
<path d="M4.75071 42H2.75071C2.75071 43.1046 3.64614 44 4.75071 44V42ZM4.75071 7.09091V5.09091C3.64614 5.09091 2.75071 5.98634 2.75071 7.09091H4.75071ZM23.2621 8.57386L22.2735 10.3124C22.278 10.315 22.2824 10.3175 22.2869 10.32L23.2621 8.57386ZM27.1484 12.5455L25.362 13.4447V13.4447L27.1484 12.5455ZM27.1484 23.7443L25.3596 22.8499L25.3548 22.8596L27.1484 23.7443ZM23.2962 27.767L24.2848 29.5056L24.2933 29.5007L23.2962 27.767ZM8.1598 29.25H6.1598C6.1598 30.3546 7.05523 31.25 8.1598 31.25V29.25ZM8.1598 25.5V23.5C7.05523 23.5 6.1598 24.3954 6.1598 25.5H8.1598ZM20.995 24.5284L20.0046 22.7909L20.995 24.5284ZM23.4666 21.9034L21.6561 21.0536L21.6523 21.0617L23.4666 21.9034ZM23.4666 14.3864L21.6523 15.228C21.6547 15.2331 21.6571 15.2382 21.6595 15.2433L23.4666 14.3864ZM20.978 11.7955L20.0082 13.5446C20.0126 13.547 20.017 13.5495 20.0215 13.5519L20.978 11.7955ZM8.97798 10.8409V8.84091C7.87341 8.84091 6.97798 9.73634 6.97798 10.8409H8.97798ZM8.97798 42V44C10.0826 44 10.978 43.1046 10.978 42H8.97798ZM6.75071 42V7.09091H2.75071V42H6.75071ZM4.75071 9.09091H16.5462V5.09091H4.75071V9.09091ZM16.5462 9.09091C19.0606 9.09091 20.9272 9.54691 22.2735 10.3124L24.2507 6.83528C22.1197 5.62354 19.509 5.09091 16.5462 5.09091V9.09091ZM22.2869 10.32C23.7143 11.1171 24.7139 12.1573 25.362 13.4447L28.9349 11.6462C27.9011 9.59269 26.3099 7.98515 24.2372 6.82769L22.2869 10.32ZM25.362 13.4447C26.0489 14.8092 26.4098 16.3602 26.4098 18.1364H30.4098C30.4098 15.7989 29.9298 13.6226 28.9349 11.6462L25.362 13.4447ZM26.4098 18.1364C26.4098 19.9123 26.049 21.4711 25.3596 22.8499L28.9373 24.6387C29.9297 22.6539 30.4098 20.474 30.4098 18.1364H26.4098ZM25.3548 22.8596C24.7131 24.1606 23.7189 25.2167 22.299 26.0334L24.2933 29.5007C26.3507 28.3174 27.9247 26.6917 28.9421 24.629L25.3548 22.8596ZM22.3076 26.0285C20.9591 26.7952 19.1027 27.25 16.6143 27.25V31.25C19.5579 31.25 22.1559 30.7161 24.2848 29.5056L22.3076 26.0285ZM16.6143 27.25H8.1598V31.25H16.6143V27.25ZM10.1598 29.25V25.5H6.1598V29.25H10.1598ZM8.1598 27.5H16.478V23.5H8.1598V27.5ZM16.478 27.5C18.5587 27.5 20.4444 27.1444 21.9854 26.266L20.0046 22.7909C19.273 23.2079 18.1473 23.5 16.478 23.5V27.5ZM21.9854 26.266C23.4537 25.4291 24.581 24.2536 25.2809 22.7451L21.6523 21.0617C21.3295 21.7577 20.8091 22.3323 20.0046 22.7909L21.9854 26.266ZM25.2771 22.7532C25.9406 21.3396 26.2507 19.7878 26.2507 18.1364H22.2507C22.2507 19.2804 22.0381 20.2399 21.6561 21.0536L25.2771 22.7532ZM26.2507 18.1364C26.2507 16.4854 25.9408 14.936 25.2737 13.5294L21.6595 15.2433C22.0379 16.0413 22.2507 16.9919 22.2507 18.1364H26.2507ZM25.2809 13.5447C24.5751 12.0234 23.4286 10.8527 21.9345 10.039L20.0215 13.5519C20.8228 13.9883 21.3354 14.5448 21.6523 15.228L25.2809 13.5447ZM21.9478 10.0463C20.4002 9.18822 18.5052 8.84091 16.4098 8.84091V12.8409C18.1098 12.8409 19.2604 13.13 20.0082 13.5446L21.9478 10.0463ZM16.4098 8.84091H8.97798V12.8409H16.4098V8.84091ZM6.97798 10.8409V42H10.978V10.8409H6.97798ZM8.97798 40H4.75071V44H8.97798V40ZM35.2195 42H33.2195C33.2195 43.1046 34.1149 44 35.2195 44V42ZM35.2195 7.09091V5.09091C34.1149 5.09091 33.2195 5.98634 33.2195 7.09091H35.2195ZM56.2876 7.09091H58.2876C58.2876 5.98634 57.3922 5.09091 56.2876 5.09091V7.09091ZM56.2876 10.8409V12.8409C57.3922 12.8409 58.2876 11.9455 58.2876 10.8409H56.2876ZM39.4467 10.8409V8.84091C38.3422 8.84091 37.4467 9.73634 37.4467 10.8409H39.4467ZM39.4467 22.6364H37.4467C37.4467 23.7409 38.3422 24.6364 39.4467 24.6364V22.6364ZM55.1967 22.6364H57.1967C57.1967 21.5318 56.3013 20.6364 55.1967 20.6364V22.6364ZM55.1967 26.3864V28.3864C56.3013 28.3864 57.1967 27.4909 57.1967 26.3864H55.1967ZM39.4467 26.3864V24.3864C38.3422 24.3864 37.4467 25.2818 37.4467 26.3864H39.4467ZM39.4467 38.25H37.4467C37.4467 39.3546 38.3422 40.25 39.4467 40.25V38.25ZM56.5604 38.25H58.5604C58.5604 37.1454 57.6649 36.25 56.5604 36.25V38.25ZM56.5604 42V44C57.6649 44 58.5604 43.1046 58.5604 42H56.5604ZM37.2195 42V7.09091H33.2195V42H37.2195ZM35.2195 9.09091H56.2876V5.09091H35.2195V9.09091ZM54.2876 7.09091V10.8409H58.2876V7.09091H54.2876ZM56.2876 8.84091H39.4467V12.8409H56.2876V8.84091ZM37.4467 10.8409V22.6364H41.4467V10.8409H37.4467ZM39.4467 24.6364H55.1967V20.6364H39.4467V24.6364ZM53.1967 22.6364V26.3864H57.1967V22.6364H53.1967ZM55.1967 24.3864H39.4467V28.3864H55.1967V24.3864ZM37.4467 26.3864V38.25H41.4467V26.3864H37.4467ZM39.4467 40.25H56.5604V36.25H39.4467V40.25ZM54.5604 38.25V42H58.5604V38.25H54.5604ZM56.5604 40H35.2195V44H56.5604V40ZM61.9979 10.8409H59.9979C59.9979 11.9455 60.8933 12.8409 61.9979 12.8409V10.8409ZM61.9979 7.09091V5.09091C60.8933 5.09091 59.9979 5.98634 59.9979 7.09091H61.9979ZM88.1797 7.09091H90.1797C90.1797 5.98634 89.2843 5.09091 88.1797 5.09091V7.09091ZM88.1797 10.8409V12.8409C89.2843 12.8409 90.1797 11.9455 90.1797 10.8409H88.1797ZM77.2024 10.8409V8.84091C76.0978 8.84091 75.2024 9.73634 75.2024 10.8409H77.2024ZM77.2024 42V44C78.307 44 79.2024 43.1046 79.2024 42H77.2024ZM72.9751 42H70.9751C70.9751 43.1046 71.8706 44 72.9751 44V42ZM72.9751 10.8409H74.9751C74.9751 9.73634 74.0797 8.84091 72.9751 8.84091V10.8409ZM63.9979 10.8409V7.09091H59.9979V10.8409H63.9979ZM61.9979 9.09091H88.1797V5.09091H61.9979V9.09091ZM86.1797 7.09091V10.8409H90.1797V7.09091H86.1797ZM88.1797 8.84091H77.2024V12.8409H88.1797V8.84091ZM75.2024 10.8409V42H79.2024V10.8409H75.2024ZM77.2024 40H72.9751V44H77.2024V40ZM74.9751 42V10.8409H70.9751V42H74.9751ZM72.9751 8.84091H61.9979V12.8409H72.9751V8.84091Z" fill="#EE9B4F"/>
</svg>
