<svg width="85" height="35" viewBox="0 0 85 35" fill="none" xmlns="http://www.w3.org/2000/svg">
<path d="M0.75071 35V0.0909081H12.5462C15.2848 0.0909081 17.5234 0.585226 19.2621 1.57386C21.0121 2.55114 22.3075 3.875 23.1484 5.54545C23.9893 7.21591 24.4098 9.07954 24.4098 11.1364C24.4098 13.1932 23.9893 15.0625 23.1484 16.7443C22.3189 18.4261 21.0348 19.767 19.2962 20.767C17.5575 21.7557 15.3303 22.25 12.6143 22.25H4.1598V18.5H12.478C14.353 18.5 15.8587 18.1761 16.995 17.5284C18.1314 16.8807 18.9553 16.0057 19.4666 14.9034C19.9893 13.7898 20.2507 12.5341 20.2507 11.1364C20.2507 9.73864 19.9893 8.48864 19.4666 7.38636C18.9553 6.28409 18.1257 5.42045 16.978 4.79545C15.8303 4.15909 14.3075 3.84091 12.4098 3.84091H4.97798V35H0.75071ZM31.2195 35V0.0909081H52.2876V3.84091H35.4467V15.6364H51.1967V19.3864H35.4467V31.25H52.5604V35H31.2195ZM57.9979 3.84091V0.0909081H84.1797V3.84091H73.2024V35H68.9751V3.84091H57.9979Z" fill="#FBECA2"/>
<path d="M0.75071 35H-1.24929C-1.24929 36.1046 -0.353859 37 0.75071 37V35ZM0.75071 0.0909081V-1.90909C-0.353859 -1.90909 -1.24929 -1.01366 -1.24929 0.0909081H0.75071ZM19.2621 1.57386L18.2735 3.31244C18.278 3.31499 18.2824 3.31752 18.2869 3.32003L19.2621 1.57386ZM23.1484 5.54545L21.362 6.44474V6.44474L23.1484 5.54545ZM23.1484 16.7443L21.3596 15.8499L21.3548 15.8596L23.1484 16.7443ZM19.2962 20.767L20.2848 22.5056L20.2933 22.5007L19.2962 20.767ZM4.1598 22.25H2.1598C2.1598 23.3546 3.05523 24.25 4.1598 24.25V22.25ZM4.1598 18.5V16.5C3.05523 16.5 2.1598 17.3954 2.1598 18.5H4.1598ZM16.995 17.5284L16.0046 15.7909L16.995 17.5284ZM19.4666 14.9034L17.6561 14.0536L17.6523 14.0617L19.4666 14.9034ZM19.4666 7.38636L17.6523 8.22804C17.6547 8.23315 17.6571 8.23825 17.6595 8.24333L19.4666 7.38636ZM16.978 4.79545L16.0082 6.54458C16.0126 6.54704 16.017 6.54948 16.0215 6.55191L16.978 4.79545ZM4.97798 3.84091V1.84091C3.87341 1.84091 2.97798 2.73634 2.97798 3.84091H4.97798ZM4.97798 35V37C6.08255 37 6.97798 36.1046 6.97798 35H4.97798ZM2.75071 35V0.0909081H-1.24929V35H2.75071ZM0.75071 2.09091H12.5462V-1.90909H0.75071V2.09091ZM12.5462 2.09091C15.0606 2.09091 16.9272 2.54691 18.2735 3.31244L20.2507 -0.164718C18.1197 -1.37646 15.509 -1.90909 12.5462 -1.90909V2.09091ZM18.2869 3.32003C19.7143 4.11712 20.7139 5.15731 21.362 6.44474L24.9349 4.64617C23.9011 2.59269 22.3099 0.985153 20.2372 -0.172308L18.2869 3.32003ZM21.362 6.44474C22.0489 7.80924 22.4098 9.3602 22.4098 11.1364H26.4098C26.4098 8.79889 25.9298 6.62257 24.9349 4.64617L21.362 6.44474ZM22.4098 11.1364C22.4098 12.9123 22.049 14.4711 21.3596 15.8499L24.9373 17.6387C25.9297 15.6539 26.4098 13.474 26.4098 11.1364H22.4098ZM21.3548 15.8596C20.7131 17.1606 19.7189 18.2167 18.299 19.0334L20.2933 22.5007C22.3507 21.3174 23.9247 19.6917 24.9421 17.629L21.3548 15.8596ZM18.3076 19.0285C16.9591 19.7952 15.1027 20.25 12.6143 20.25V24.25C15.5579 24.25 18.1559 23.7161 20.2848 22.5056L18.3076 19.0285ZM12.6143 20.25H4.1598V24.25H12.6143V20.25ZM6.1598 22.25V18.5H2.1598V22.25H6.1598ZM4.1598 20.5H12.478V16.5H4.1598V20.5ZM12.478 20.5C14.5587 20.5 16.4444 20.1444 17.9854 19.266L16.0046 15.7909C15.273 16.2079 14.1473 16.5 12.478 16.5V20.5ZM17.9854 19.266C19.4537 18.4291 20.581 17.2536 21.2809 15.7451L17.6523 14.0617C17.3295 14.7577 16.8091 15.3323 16.0046 15.7909L17.9854 19.266ZM21.2771 15.7532C21.9406 14.3396 22.2507 12.7878 22.2507 11.1364H18.2507C18.2507 12.2804 18.0381 13.2399 17.6561 14.0536L21.2771 15.7532ZM22.2507 11.1364C22.2507 9.48542 21.9408 7.93597 21.2737 6.52939L17.6595 8.24333C18.0379 9.0413 18.2507 9.99186 18.2507 11.1364H22.2507ZM21.2809 6.54469C20.5751 5.02337 19.4286 3.85266 17.9345 3.039L16.0215 6.55191C16.8228 6.98825 17.3354 7.54481 17.6523 8.22804L21.2809 6.54469ZM17.9478 3.04632C16.4002 2.18822 14.5052 1.84091 12.4098 1.84091V5.84091C14.1098 5.84091 15.2604 6.12996 16.0082 6.54458L17.9478 3.04632ZM12.4098 1.84091H4.97798V5.84091H12.4098V1.84091ZM2.97798 3.84091V35H6.97798V3.84091H2.97798ZM4.97798 33H0.75071V37H4.97798V33ZM31.2195 35H29.2195C29.2195 36.1046 30.1149 37 31.2195 37V35ZM31.2195 0.0909081V-1.90909C30.1149 -1.90909 29.2195 -1.01366 29.2195 0.0909081H31.2195ZM52.2876 0.0909081H54.2876C54.2876 -1.01366 53.3922 -1.90909 52.2876 -1.90909V0.0909081ZM52.2876 3.84091V5.84091C53.3922 5.84091 54.2876 4.94548 54.2876 3.84091H52.2876ZM35.4467 3.84091V1.84091C34.3422 1.84091 33.4467 2.73634 33.4467 3.84091H35.4467ZM35.4467 15.6364H33.4467C33.4467 16.7409 34.3422 17.6364 35.4467 17.6364V15.6364ZM51.1967 15.6364H53.1967C53.1967 14.5318 52.3013 13.6364 51.1967 13.6364V15.6364ZM51.1967 19.3864V21.3864C52.3013 21.3864 53.1967 20.4909 53.1967 19.3864H51.1967ZM35.4467 19.3864V17.3864C34.3422 17.3864 33.4467 18.2818 33.4467 19.3864H35.4467ZM35.4467 31.25H33.4467C33.4467 32.3546 34.3422 33.25 35.4467 33.25V31.25ZM52.5604 31.25H54.5604C54.5604 30.1454 53.6649 29.25 52.5604 29.25V31.25ZM52.5604 35V37C53.6649 37 54.5604 36.1046 54.5604 35H52.5604ZM33.2195 35V0.0909081H29.2195V35H33.2195ZM31.2195 2.09091H52.2876V-1.90909H31.2195V2.09091ZM50.2876 0.0909081V3.84091H54.2876V0.0909081H50.2876ZM52.2876 1.84091H35.4467V5.84091H52.2876V1.84091ZM33.4467 3.84091V15.6364H37.4467V3.84091H33.4467ZM35.4467 17.6364H51.1967V13.6364H35.4467V17.6364ZM49.1967 15.6364V19.3864H53.1967V15.6364H49.1967ZM51.1967 17.3864H35.4467V21.3864H51.1967V17.3864ZM33.4467 19.3864V31.25H37.4467V19.3864H33.4467ZM35.4467 33.25H52.5604V29.25H35.4467V33.25ZM50.5604 31.25V35H54.5604V31.25H50.5604ZM52.5604 33H31.2195V37H52.5604V33ZM57.9979 3.84091H55.9979C55.9979 4.94548 56.8933 5.84091 57.9979 5.84091V3.84091ZM57.9979 0.0909081V-1.90909C56.8933 -1.90909 55.9979 -1.01366 55.9979 0.0909081H57.9979ZM84.1797 0.0909081H86.1797C86.1797 -1.01366 85.2843 -1.90909 84.1797 -1.90909V0.0909081ZM84.1797 3.84091V5.84091C85.2843 5.84091 86.1797 4.94548 86.1797 3.84091H84.1797ZM73.2024 3.84091V1.84091C72.0978 1.84091 71.2024 2.73634 71.2024 3.84091H73.2024ZM73.2024 35V37C74.307 37 75.2024 36.1046 75.2024 35H73.2024ZM68.9751 35H66.9751C66.9751 36.1046 67.8706 37 68.9751 37V35ZM68.9751 3.84091H70.9751C70.9751 2.73634 70.0797 1.84091 68.9751 1.84091V3.84091ZM59.9979 3.84091V0.0909081H55.9979V3.84091H59.9979ZM57.9979 2.09091H84.1797V-1.90909H57.9979V2.09091ZM82.1797 0.0909081V3.84091H86.1797V0.0909081H82.1797ZM84.1797 1.84091H73.2024V5.84091H84.1797V1.84091ZM71.2024 3.84091V35H75.2024V3.84091H71.2024ZM73.2024 33H68.9751V37H73.2024V33ZM70.9751 35V3.84091H66.9751V35H70.9751ZM68.9751 1.84091H57.9979V5.84091H68.9751V1.84091Z" fill="#EE9B4F"/>
</svg>
