<svg width="36" height="36" viewBox="0 0 36 36" fill="none" xmlns="http://www.w3.org/2000/svg">
<path d="M30.3712 1.78783L30.7045 1.45449C31.7652 0.393832 33.4849 0.393831 34.5455 1.45449C35.6062 2.51515 35.6062 4.23482 34.5455 5.29548L34.2122 5.62882C35.396 6.95407 35.3517 8.98926 34.0795 10.2615L10.9205 33.4205C10.7763 33.5647 10.5957 33.6669 10.3979 33.7164L1.39788 35.9664C1.0145 36.0622 0.608957 35.9499 0.329529 35.6705C0.0501008 35.3911 -0.0622294 34.9855 0.0336135 34.6021L2.28361 25.6021C2.33307 25.4043 2.43535 25.2237 2.57953 25.0795L24.2724 3.38665C23.8333 3.07706 23.2223 3.11867 22.8295 3.51147L15.4205 10.9205C14.9812 11.3598 14.2689 11.3598 13.8295 10.9205C13.3902 10.4811 13.3902 9.76883 13.8295 9.32949L21.2385 1.92048C22.512 0.647042 24.5499 0.603969 25.875 1.79127C27.1525 0.64668 29.0924 0.645536 30.3712 1.78783ZM28.9205 3.51147C28.4812 3.07213 27.7689 3.07213 27.3295 3.51147L4.39086 26.4501L2.67119 33.3288L9.54987 31.6092L32.4885 8.67048C32.9279 8.23114 32.9279 7.51883 32.4885 7.07949L28.9205 3.51147Z" fill="black"/>
</svg>
